<svg xmlns="http://www.w3.org/2000/svg" width="169.393" height="86" viewBox="0 0 169.393 86">
  <g id="Group_3" data-name="Group 3" transform="translate(-30.228 -30)">
    <text id="Skyway_Airlines" data-name="Skyway
Airlines" transform="translate(85.621 59)" fill="#fff" font-size="28" font-family="Poppins-Bold, Poppins" font-weight="700"><tspan x="0" y="0">Skyway</tspan><tspan font-size="31" font-family="Poppins-Regular, Poppins" font-weight="400"><tspan x="0" y="46">Airlines</tspan></tspan></text>
    <g id="noun-airline-5662130" transform="translate(30.228 39.97)">
      <g id="Group_2" data-name="Group 2">
        <path id="Path_44" data-name="Path 44" d="M24.611,44.193c0,.031-.014.059-.014.091A20.4,20.4,0,0,0,39.264,67.549c.029.01.051.031.081.039s.059,0,.088,0a20.462,20.462,0,1,0,10.6-39.528q-.911-.244-1.842-.4l.729,2.541A18.089,18.089,0,0,1,62.795,46.5c-1.452.187-2.838,1.405-4.478,2.867-2.367,2.11-5.393,4.809-9.593,4.676a9.251,9.251,0,0,1-2.161-.272A13.006,13.006,0,0,1,49.249,52.3,5.576,5.576,0,0,0,51.16,50.97a4.486,4.486,0,0,0,.9-4.354A12.388,12.388,0,0,0,49.9,42.474a21.86,21.86,0,0,0-5.09-4.922l-.059-.038-.389-.231a12.249,12.249,0,0,1-2.853-2.047c-.755-.86-.87-2.038.671-3.9l-.711-1.328h0l3.185,5.948a1.174,1.174,0,0,0,1.081.716h3.489a1.174,1.174,0,0,0,1.127-1.494l-2.739-9.545,5.413-.161,1.589,2.964a1.168,1.168,0,0,0,1.041.638h2.6a1.173,1.173,0,0,0,1.221-1.49l-1.365-4.757h0c-.005-.019-.011-.037-.017-.055l-.213-.623.2-.571c.013-.035.025-.07.036-.107l1.348-4.7a1.174,1.174,0,0,0-1.111-1.552h-2.7v0a1.168,1.168,0,0,0-1.031.619l-1.6,2.991-5.411-.161,2.738-9.552h0A1.17,1.17,0,0,0,49.22,7.637H45.752a1.169,1.169,0,0,0-1.052.621L39.253,18.431l-5.372-.159h-.108A3.752,3.752,0,0,0,31.1,19.395a3.937,3.937,0,0,0-1.139,2.651h0v.229A3.938,3.938,0,0,0,31.1,24.921a3.752,3.752,0,0,0,2.669,1.132v0h.108l5.377-.16,1.053,1.966A20.441,20.441,0,0,0,24.611,44.193Zm9.2-20.486h-.041v0a1.425,1.425,0,0,1-1.012-.433,1.584,1.584,0,0,1-.46-1.064v-.1h0a1.584,1.584,0,0,1,.46-1.064,1.431,1.431,0,0,1,1-.437h.053l6.093.181a1.17,1.17,0,0,0,1.082-.653L46.43,9.973h1.235l-2.728,9.509a1.173,1.173,0,0,0,1.178,1.492l7.557.224a1.17,1.17,0,0,0,1.082-.653l1.591-2.973h.442l-.933,3.253-.325.953a1.165,1.165,0,0,0,0,.751h0l.326.953.938,3.259h-.441l-1.609-3a1.168,1.168,0,0,0-1.061-.619h0l-7.647.225a1.171,1.171,0,0,0-1.092,1.489h0l2.725,9.5H46.43L40.976,24.145a1.169,1.169,0,0,0-1.061-.619h0Zm-7.2,24.134c0-.573.034-1.138.085-1.7,1.752,1.072,1.875,1.855,2,2.864.236,1.949.543,4.493,5.934,8.992A13.906,13.906,0,0,1,38,61.687a5.656,5.656,0,0,1,.712,3.23,18.066,18.066,0,0,1-12.1-17.076h0Zm13.31-17.423c-2.046,2.751-1.591,4.746-.177,6.358A13.769,13.769,0,0,0,43.169,39.3l.39.231.039.022a19.219,19.219,0,0,1,4.42,4.324,10.11,10.11,0,0,1,1.762,3.32,2.3,2.3,0,0,1-.354,2.2,3.28,3.28,0,0,1-1.12.755A10.838,10.838,0,0,0,44.432,52.6a1.956,1.956,0,0,0-.475,1.794,2.067,2.067,0,0,0,1.12,1.293,8.908,8.908,0,0,0,3.576.692c5.14.163,8.555-2.881,11.225-5.262a11.613,11.613,0,0,1,2.932-2.2,18.093,18.093,0,0,1-21.846,16.65,7.925,7.925,0,0,0-.909-5.008A15.977,15.977,0,0,0,36.134,56.2c-4.678-3.9-4.922-5.923-5.109-7.47-.222-1.839-.431-3.205-3.914-5.041A17.9,17.9,0,0,1,39.924,30.418Z" transform="translate(-17.828 -7.637)" fill="#fff"/>
        <path id="Path_45" data-name="Path 45" d="M82.88,51.925l-.029-.17-.031-.17-.031-.169-.032-.169-.034-.169-.034-.168-.036-.168-.037-.167-.037-.166-.038-.167-.039-.167-.041-.165-.023-.093a1.173,1.173,0,0,0-2.274.58l.019.078.037.151.036.151.035.152.035.153.033.152.032.153.032.154.031.154.029.154.029.156.028.154.027.156.026.157.019.123a1.173,1.173,0,1,0,2.316-.377l-.019-.123Z" transform="translate(-29.438 -16.221)" fill="#fff"/>
        <path id="Path_46" data-name="Path 46" d="M77.592,72.755h0l0,0Z" transform="translate(-28.911 -21.172)" fill="#fff"/>
        <path id="Path_47" data-name="Path 47" d="M78.829,72.084a1.174,1.174,0,0,0-1.58.5l-.068.128-.07.13-.071.13-.071.13-.072.128-.073.128-.073.128-.074.128-.075.127-.076.127L76.45,74l-.077.126-.078.126-.079.124-.08.124-.013.02a1.173,1.173,0,0,0,1.973,1.27l.013-.02.087-.136.087-.137.085-.137.085-.138.084-.138.083-.138.082-.14.081-.14.081-.14.08-.14.079-.141L79.1,74.1l.077-.142.077-.143.075-.143.005-.01a1.174,1.174,0,0,0-.506-1.581Z" transform="translate(-28.566 -21.006)" fill="#fff"/>
        <path id="Path_48" data-name="Path 48" d="M80.793,61.883l-.019.15-.02.15-.021.15-.022.15-.022.15-.024.148-.025.15-.025.149-.026.148-.027.148-.028.149-.029.147-.03.147-.027.127a1.173,1.173,0,1,0,2.289.517q.005-.023.009-.046l.027-.126.033-.162.031-.162.031-.161.03-.163.029-.163.028-.163.027-.163.026-.164.025-.164.024-.164.022-.164.022-.165.021-.166.02-.165v-.008a1.173,1.173,0,1,0-2.333-.257v-.007Z" transform="translate(-29.498 -18.666)" fill="#fff"/>
        <path id="Path_49" data-name="Path 49" d="M46.683,91.61l.166.015.167.014.167.012.167.012.167.011.167.009.169.009.168.007.167.006.169.005.169,0,.169,0h.336a1.173,1.173,0,1,0,.007-2.347h-.306l-.154,0-.154,0-.153,0-.154-.006-.154-.006-.153-.008-.154-.008-.153-.009-.153-.011L47.2,89.3l-.152-.012-.152-.014-.1-.009a1.173,1.173,0,0,0-.214,2.337h0Z" transform="translate(-22.243 -24.604)" fill="#fff"/>
        <path id="Path_50" data-name="Path 50" d="M23.951,36.066l-.059.065-.1.123-.1.124-.1.124-.1.125-.1.126-.1.125-.1.126-.1.127-.1.128-.1.128-.1.128-.1.13-.1.13-.095.13-.062.087a1.173,1.173,0,0,0,1.91,1.363l.054-.075.087-.118.087-.118.087-.118.09-.118.09-.118.09-.118.091-.118.092-.118.092-.118.093-.114.094-.114.094-.113.095-.113.1-.113.059-.065a1.173,1.173,0,1,0-1.781-1.528h0Z" transform="translate(-17.399 -13.46)" fill="#fff"/>
        <path id="Path_51" data-name="Path 51" d="M58.746,90.35l.021-.006.163-.045.162-.046.163-.047.162-.048.161-.049.161-.051.16-.051.16-.052.16-.053.159-.054.158-.055.157-.056.158-.059.157-.059.074-.028A1.173,1.173,0,1,0,60.25,87.4l-.059.022-.143.053-.144.052-.144.051-.144.05-.145.049-.146.049-.146.048-.147.047-.147.046-.148.045-.147.044L58.443,88l-.15.042-.149.041-.021.005a1.173,1.173,0,1,0,.623,2.263v0Z" transform="translate(-24.684 -24.2)" fill="#fff"/>
        <path id="Path_52" data-name="Path 52" d="M34.913,88.279l.146.071.146.07.147.07.147.069.147.068.148.067.148.066.148.065.149.064.15.064.15.062.15.062.151.059.151.059.1.038a1.173,1.173,0,0,0,.844-2.19h0l-.085-.034-.138-.054-.137-.055-.137-.059-.137-.059-.136-.059-.136-.059-.136-.059-.136-.059-.134-.059-.134-.059-.134-.063-.133-.063-.134-.065-.133-.065-.067-.034a1.173,1.173,0,1,0-1.038,2.1Z" transform="translate(-19.889 -23.93)" fill="#fff"/>
        <path id="Path_53" data-name="Path 53" d="M69.736,84.832l.1-.077.131-.1.13-.1.129-.1.128-.1.127-.1.127-.1.127-.1.125-.1.125-.1.124-.1.124-.1.123-.105.123-.106.121-.107.038-.034a1.174,1.174,0,0,0-1.564-1.749l-.028.025-.111.1-.111.1-.112.1-.113.1-.113.095-.114.094-.118.094-.118.092-.118.093-.118.092-.118.091-.118.09-.118.09-.118.088-.1.077a1.174,1.174,0,1,0,1.4,1.885h0Z" transform="translate(-26.886 -22.941)" fill="#fff"/>
        <path id="Path_54" data-name="Path 54" d="M78.642,40.746l-.082-.141-.083-.141-.084-.14-.085-.141-.084-.14-.086-.138-.088-.138-.088-.138-.089-.137-.09-.136-.091-.136-.091-.136-.092-.134-.093-.134-.067-.1a1.174,1.174,0,1,0-1.917,1.355l.059.084.085.123.084.123.083.123.082.124.082.125.081.126.08.125.08.126.08.127.078.127.077.127.077.128.076.129.075.13.024.042a1.173,1.173,0,0,0,2.032-1.174Z" transform="translate(-28.417 -13.995)" fill="#fff"/>
        <path id="Path_55" data-name="Path 55" d="M19.465,45.892a1.174,1.174,0,0,0-1.5.707l-.048.131-.055.154-.054.154-.052.154-.052.155-.051.155-.049.156-.049.156-.048.156-.047.157-.046.157-.045.157-.044.158-.044.158-.042.158-.006.025a1.173,1.173,0,1,0,2.273.586h0l0-.012.039-.144.039-.144.04-.144.041-.143.042-.144.043-.143.044-.143.045-.142.045-.141.047-.142.047-.141.048-.141.049-.141.049-.14.047-.131A1.173,1.173,0,0,0,19.465,45.892Z" transform="translate(-16.356 -15.575)" fill="#fff"/>
        <path id="Path_56" data-name="Path 56" d="M21.339,71.145l-.064-.137-.064-.137-.063-.137L21.09,70.6l-.059-.138-.059-.14-.059-.14-.059-.14-.059-.14-.059-.141-.01-.025a1.174,1.174,0,0,0-2.18.874l.01.025.062.154.063.154.065.154.065.153.066.152.067.152.068.152.069.15.07.15.071.149.071.149.073.149.073.147.074.147.049.1a1.173,1.173,0,1,0,2.084-1.071l-.042-.083-.067-.134-.067-.136-.065-.135Z" transform="translate(-16.619 -20.391)" fill="#fff"/>
        <path id="Path_57" data-name="Path 57" d="M16.138,58.641v.111l0,.17.005.17.006.17.008.17.009.171.009.171.011.171.012.171.013.171.014.172.015.171.016.171.017.171.012.11a1.174,1.174,0,0,0,2.338-.21q0-.024-.005-.048l-.011-.1-.016-.157-.015-.157-.014-.157-.013-.156-.012-.157-.011-.157-.01-.156-.009-.156-.008-.156-.007-.156-.006-.156,0-.156,0-.155v-.111a1.173,1.173,0,0,0-2.346.051Z" transform="translate(-16.136 -17.99)" fill="#fff"/>
        <path id="Path_58" data-name="Path 58" d="M25.206,81.073l.111.118.111.118.113.118.113.118.114.115.114.114.118.114.118.113.118.111.118.111.118.111.118.11.118.109.114.1a1.173,1.173,0,0,0,1.57-1.743l-.1-.094-.109-.1-.108-.1-.107-.1-.107-.1-.107-.1-.106-.1-.1-.1-.1-.1-.1-.1-.1-.105-.1-.106-.1-.107-.1-.107-.1-.108-.024-.026a1.173,1.173,0,1,0-1.721,1.6l.024.026Z" transform="translate(-17.929 -22.463)" fill="#fff"/>
      </g>
    </g>
  </g>
</svg>