<svg xmlns="http://www.w3.org/2000/svg" xmlns:xlink="http://www.w3.org/1999/xlink" width="1963.336" height="1976.497" viewBox="0 0 1963.336 1976.497">
  <defs>
    <filter id="Path_448">
      <feOffset dy="3" input="SourceAlpha"/>
      <feGaussianBlur stdDeviation="3" result="blur"/>
      <feFlood flood-opacity="0.149" result="color"/>
      <feComposite operator="out" in="SourceGraphic" in2="blur"/>
      <feComposite operator="in" in="color"/>
      <feComposite operator="in" in2="SourceGraphic"/>
    </filter>
  </defs>
  <g id="Component_25_1" data-name="Component 25 – 1" transform="translate(0 4)">
    <path id="Path_454" data-name="Path 454" d="M644.053,613.694S629.578.638,852.721.638s211.767,613.056,211.767,613.056Z" transform="translate(-0.638 1839.053) rotate(-90)" fill="#ffd464"/>
    <path id="Path_455" data-name="Path 455" d="M705.858,269.544l-24.033-2.669,19.741-113.014,30.041,39.155Z" transform="translate(28.045 1831.119) rotate(-90)" fill="#ffefc4"/>
    <path id="Path_456" data-name="Path 456" d="M732.6,205.332l-30.9-42.713L838.176,73.631v69.411Z" transform="translate(11.279 1826.965) rotate(-90)" fill="#ffefc4"/>
    <path id="Path_457" data-name="Path 457" d="M819.556,143.042V73.631l138.188,88.988-32.615,42.713Z" transform="translate(11.279 1802.337) rotate(-90)" fill="#ffefc4"/>
    <path id="Path_458" data-name="Path 458" d="M911.139,193.906l29.182-40.045,20.6,113.014-24.032,2.669Z" transform="translate(28.045 1783.198) rotate(-90)" fill="#ffefc4"/>
    <path id="Path_492" data-name="Path 492" d="M677.516,292.5V279.7h-2.63v-9.388a3.47,3.47,0,0,1,3.506-3.413h5.259a3.47,3.47,0,0,1,3.506,3.413V279.7h-2.63v12.8Zm21.913,0v-10.24h5.26l-4.454-13.023A3.515,3.515,0,0,0,696.9,266.9h-.21a3.5,3.5,0,0,0-3.331,2.338l-4.453,13.023h5.259V292.5Zm-18.407-27.308a3.415,3.415,0,1,0-3.506-3.413A3.449,3.449,0,0,0,681.021,265.189Zm15.777,0a3.415,3.415,0,1,0-3.506-3.413A3.448,3.448,0,0,0,696.8,265.189Z" transform="translate(49.885 1832.57) rotate(-90)" fill="#4e267d"/>
    <path id="Path_504" data-name="Path 504" d="M854.862,261.2a4.836,4.836,0,0,1,4.836-4.836H974.164a4.837,4.837,0,0,1,4.754,3.945l5.44,29.015a4.837,4.837,0,0,1-4.754,5.727H859.7a4.836,4.836,0,0,1-4.836-4.836Z" transform="translate(49.466 1794.958) rotate(-90)" fill="#e4ecf8"/>
    <path id="Path_781" data-name="Path 781" d="M91.225,1652.114c.281-4.824.281-4.824.283-4.824h.054l.17.012.675.036c.6.036,1.481.084,2.638.145,2.314.133,5.715.338,10.059.58,8.689.5,21.155,1.2,36.261,2.031,30.211,1.668,70.978,3.881,113.206,6,84.07,4.231,173.376,8.112,197.222,6.952a12.267,12.267,0,0,1,3.066-.182,40.628,40.628,0,0,1,4.271.472c3.215.5,7.428,1.354,12.437,2.515,10.041,2.31,23.607,5.876,39.445,10.264,31.693,8.8,72.707,20.988,113.281,33.319s80.756,24.821,110.782,34.215c15.014,4.7,27.492,8.632,36.217,11.389,2.894.919,5.375,1.7,7.4,2.345V1449.767C608.9,1358,428.614,1263.427,289.986,1190.936q-26.363-13.8-50.611-26.464c-47.8-24.977-88.786-46.412-120.191-62.952-21-11.062-37.735-19.948-49.363-26.259-5.809-3.155-10.374-5.682-13.57-7.52-1.591-.919-2.888-1.692-3.845-2.3-.181-.121-.359-.229-.53-.351-.274-.181-.532-.35-.763-.532a6.911,6.911,0,0,1-1.517-1.451c-1.587-2.152-3.522-6.432-5.589-11.522-2.159-5.319-4.709-12.162-7.482-19.96-5.552-15.584-12.067-35.16-18.28-54.3-5.1-15.723-10.01-31.176-14.02-43.928.068,11.152.15,24.933.238,40.968.253,46.015.56,110.586.779,184.805.433,146.915.516,331.66-.862,485.152,8.453.241,26.046.834,43.115,1.414,11.14.387,22.115.774,30.3,1.064,4.095.133,7.494.254,9.87.338l2.753.1.725.024.185.012h.062S91.4,1647.277,91.225,1652.114Zm0,0,.281-4.824-.056-.012H91.4Z" transform="translate(192.635 778.692) rotate(-90)" fill="none" stroke="rgba(255,255,255,0.5)" stroke-width="8"/>
    <path id="Path_444" data-name="Path 444" d="M1323.916,1270.957h2.418a2.418,2.418,0,0,1-3.627,2.091Zm-336-195.407,337.2,193.3-2.406,4.2-337.2-193.3ZM1321.5,1270.957v-82.15h4.836v82.15Z" transform="translate(220.659 1767.656) rotate(-90)" fill="rgba(255,255,255,0.5)"/>
    <g data-type="innerShadowGroup">
      <g transform="matrix(1, 0, 0, 1, 0, -4)" filter="url(#Path_448)">
        <path id="Path_448-2" data-name="Path 448" d="M691.692,1652.114c-.281-4.824-.281-4.824-.283-4.824h-.054l-.17.012-.675.036c-.6.036-1.481.084-2.638.145-2.314.133-5.715.338-10.059.58-8.689.5-21.155,1.2-36.261,2.031-30.211,1.668-70.978,3.881-113.206,6-84.07,4.231-173.376,8.112-197.222,6.952a12.251,12.251,0,0,0-3.066-.182,40.715,40.715,0,0,0-4.271.472c-3.215.5-7.428,1.354-12.437,2.515-10.041,2.309-23.607,5.876-39.445,10.264-31.693,8.8-72.707,20.988-113.281,33.319s-80.755,24.821-110.782,34.214c-15.014,4.7-27.492,8.632-36.217,11.388-2.894.919-5.375,1.7-7.4,2.345V1449.767c169.8-91.762,350.078-186.34,488.705-258.831q26.362-13.8,50.611-26.464c47.8-24.977,88.786-46.412,120.191-62.952,21-11.062,37.735-19.948,49.363-26.259,5.809-3.155,10.374-5.682,13.57-7.52,1.591-.919,2.888-1.692,3.845-2.3.181-.121.359-.229.529-.351.274-.181.532-.35.763-.532a6.911,6.911,0,0,0,1.517-1.451c1.587-2.152,3.522-6.432,5.589-11.522,2.159-5.319,4.709-12.162,7.482-19.96,5.552-15.584,12.067-35.16,18.28-54.3,5.1-15.723,10.01-31.176,14.02-43.928-.068,11.152-.15,24.933-.238,40.968-.253,46.015-.56,110.586-.779,184.805-.433,146.915-.516,331.66.862,485.151-8.453.242-26.046.835-43.115,1.415-11.14.387-22.115.774-30.3,1.064-4.095.133-7.495.254-9.87.338l-2.753.1-.725.024-.185.012h-.062S691.522,1647.277,691.692,1652.114Zm0,0-.281-4.824.056-.012h.054Z" transform="translate(190.95 1976.72) rotate(-90)" fill="#fff"/>
      </g>
      <path id="Path_448-3" data-name="Path 448" d="M691.692,1652.114c-.281-4.824-.281-4.824-.283-4.824h-.054l-.17.012-.675.036c-.6.036-1.481.084-2.638.145-2.314.133-5.715.338-10.059.58-8.689.5-21.155,1.2-36.261,2.031-30.211,1.668-70.978,3.881-113.206,6-84.07,4.231-173.376,8.112-197.222,6.952a12.251,12.251,0,0,0-3.066-.182,40.715,40.715,0,0,0-4.271.472c-3.215.5-7.428,1.354-12.437,2.515-10.041,2.309-23.607,5.876-39.445,10.264-31.693,8.8-72.707,20.988-113.281,33.319s-80.755,24.821-110.782,34.214c-15.014,4.7-27.492,8.632-36.217,11.388-2.894.919-5.375,1.7-7.4,2.345V1449.767c169.8-91.762,350.078-186.34,488.705-258.831q26.362-13.8,50.611-26.464c47.8-24.977,88.786-46.412,120.191-62.952,21-11.062,37.735-19.948,49.363-26.259,5.809-3.155,10.374-5.682,13.57-7.52,1.591-.919,2.888-1.692,3.845-2.3.181-.121.359-.229.529-.351.274-.181.532-.35.763-.532a6.911,6.911,0,0,0,1.517-1.451c1.587-2.152,3.522-6.432,5.589-11.522,2.159-5.319,4.709-12.162,7.482-19.96,5.552-15.584,12.067-35.16,18.28-54.3,5.1-15.723,10.01-31.176,14.02-43.928-.068,11.152-.15,24.933-.238,40.968-.253,46.015-.56,110.586-.779,184.805-.433,146.915-.516,331.66.862,485.151-8.453.242-26.046.835-43.115,1.415-11.14.387-22.115.774-30.3,1.064-4.095.133-7.495.254-9.87.338l-2.753.1-.725.024-.185.012h-.062S691.522,1647.277,691.692,1652.114Zm0,0-.281-4.824.056-.012h.054Z" transform="translate(190.954 1972.723) rotate(-90)" fill="none" stroke="rgba(255,255,255,0.5)" stroke-width="8"/>
    </g>
    <path id="Path_449" data-name="Path 449" d="M371,1270.546h-2.418a2.428,2.428,0,0,0,1.206,2.1,2.455,2.455,0,0,0,2.414,0Zm336-195.4-337.2,193.3,2.4,4.195,337.2-193.3Zm-333.585,195.4v-82.138h-4.836v82.138Z" transform="translate(220.576 1896.58) rotate(-90)" fill="rgba(255,255,255,0.5)"/>
    <path id="Path_453" data-name="Path 453" d="M1064.587,510.362H643.862V1860.789h420.725V510.362Z" transform="translate(102.547 1839.052) rotate(-90)" fill="#ffd464"/>
    <path id="Path_494" data-name="Path 494" d="M668.042,331.572a4.836,4.836,0,0,1,4.795-4.21H800.569a4.836,4.836,0,0,1,4.836,4.836v35.06a4.836,4.836,0,0,1-4.836,4.836H668.255a4.836,4.836,0,0,1-4.795-5.462Z" transform="translate(64.304 1834.966) rotate(-90)" fill="#e4ecf8"/>
    <path id="Path_501" data-name="Path 501" d="M971.862,320.706l7.254-9.379-7.254-9.964Z" transform="translate(58.87 1770.508) rotate(-90)" fill="#4e267d"/>
    <path id="Path_502" data-name="Path 502" d="M666.116,320.706l-7.254-9.379,7.254-9.964Z" transform="translate(58.87 1835.918) rotate(-90)" fill="#4e267d"/>
    <path id="Path_503" data-name="Path 503" d="M993.225,331.572a4.837,4.837,0,0,0-4.795-4.21H860.7a4.836,4.836,0,0,0-4.836,4.836v35.06a4.836,4.836,0,0,0,4.836,4.836H993.012a4.836,4.836,0,0,0,4.795-5.462Z" transform="translate(64.304 1794.749) rotate(-90)" fill="#e4ecf8"/>
    <path id="Path_499" data-name="Path 499" d="M973.862,1144.7l7.254-9.381-7.254-9.962Z" transform="translate(231.068 1770.089) rotate(-90)" fill="#4e267d"/>
    <path id="Path_500" data-name="Path 500" d="M663.116,1144.7l-7.254-9.381,7.254-9.962Z" transform="translate(231.068 1836.544) rotate(-90)" fill="#4e267d"/>
    <path id="Path_497" data-name="Path 497" d="M973.862,1228.7l7.254-9.382-7.254-9.962Z" transform="translate(248.622 1770.089) rotate(-90)" fill="#4e267d"/>
    <path id="Path_498" data-name="Path 498" d="M663.116,1228.7l-7.254-9.382,7.254-9.962Z" transform="translate(248.622 1836.545) rotate(-90)" fill="#4e267d"/>
    <path id="Path_446" data-name="Path 446" d="M1314.46,1193.24v73.494L1697.984,1465.6" transform="translate(245.253 1698.911) rotate(-90)" fill="none" stroke="rgba(255,255,255,0.5)" stroke-linejoin="round" stroke-width="4"/>
    <line id="Line_5" data-name="Line 5" x2="63.007" transform="translate(1745.764 537.257) rotate(-179)" fill="none" stroke="rgba(255,255,255,0.5)" stroke-width="4"/>
    <path id="Path_447" data-name="Path 447" d="M1452,1469.011v-58.055L996.207,1383.79v71.015Z" transform="translate(285.074 1765.419) rotate(-90)" fill="none" stroke="rgba(255,255,255,0.5)" stroke-linejoin="round" stroke-width="4"/>
    <path id="Path_452" data-name="Path 452" d="M262.8,1468.614v-58.055l455.783-27.178v71.028Z" transform="translate(284.989 1918.688) rotate(-90)" fill="none" stroke="rgba(255,255,255,0.5)" stroke-linejoin="round" stroke-width="4"/>
    <path id="Path_445" data-name="Path 445" d="M1272.885,1539.049V1474.2H996.207" transform="translate(303.969 1765.42) rotate(-90)" fill="none" stroke="rgba(255,255,255,0.5)" stroke-linejoin="round" stroke-width="4"/>
    <path id="Path_450" data-name="Path 450" d="M410.938,1538.65V1473.8H687.619" transform="translate(303.885 1887.729) rotate(-90)" fill="none" stroke="rgba(255,255,255,0.5)" stroke-linejoin="round" stroke-width="4"/>
  </g>
</svg>